<?xml version="1.0" encoding="utf-8"?>
<svg xmlns="http://www.w3.org/2000/svg"
	xmlns:xlink="http://www.w3.org/1999/xlink"
	width="144px" height="144px" viewBox="0 0 144 144">
<g><path fillRule="evenodd" d="M 72 144C 71.98 144 71.96 144 71.94 144 71.93 144 71.93 144 71.92 144 71.91 144 71.89 144 71.88 144 71.87 144 71.86 144 71.86 144 71.84 144 71.83 144 71.82 144 71.81 144 71.8 144 71.79 144 71.78 144 71.77 144 71.75 144 71.75 144 71.74 144 71.73 144 71.72 144 71.7 144 71.69 144 71.68 144 71.68 144 71.67 144 71.66 144 71.64 144 71.63 144 71.62 144 71.61 144 71.61 144 71.59 144 71.58 144 71.57 144 71.56 144 71.55 144 71.55 144 71.53 144 71.52 144 71.51 144 71.5 144 71.49 144 71.48 144 71.47 144 71.46 144 71.44 144 71.44 144 71.43 144 71.42 144 71.41 144 71.39 144 71.37 144 71.37 144 71.37 144 71.36 144 71.34 144 71.32 144 71.3 144 71.29 144 71.29 144 71.28 144 71.27 144 71.25 144 71.24 144 71.23 144 71.22 144 71.21 144 71.2 144 71.19 144 71.18 144 71.17 144 71.16 144 71.15 144 71.14 143.99 71.13 143.99 71.12 143.99 71.11 143.99 71.1 143.99 71.09 143.99 71.08 143.99 71.07 143.99 71.05 143.99 71.04 143.99 71.04 143.99 71.03 143.99 71.02 143.99 71.01 143.99 71 143.99 70.99 143.99 70.97 143.99 70.97 143.99 70.96 143.99 70.95 143.99 70.94 143.99 70.92 143.99 70.92 143.99 70.9 143.99 70.89 143.99 70.88 143.99 70.87 143.99 70.86 143.99 70.85 143.99 70.84 143.99 70.83 143.99 70.82 143.99 70.81 143.99 70.8 143.99 70.79 143.99 70.78 143.99 70.77 143.99 70.76 143.99 70.75 143.99 70.74 143.99 70.73 143.99 70.72 143.99 70.7 143.99 70.68 143.99 70.66 143.99 70.66 143.99 70.65 143.99 70.64 143.99 70.63 143.99 70.61 143.99 70.6 143.99 70.59 143.99 70.58 143.99 70.58 143.99 70.56 143.99 70.55 143.99 70.54 143.99 70.53 143.99 70.52 143.99 70.51 143.98 70.5 143.98 70.49 143.98 70.48 143.98 70.47 143.98 70.46 143.98 70.45 143.98 70.44 143.98 70.43 143.98 70.42 143.98 70.41 143.98 70.4 143.98 70.39 143.98 70.38 143.98 70.37 143.98 70.36 143.98 70.35 143.98 70.34 143.98 70.33 143.98 70.32 143.98 70.31 143.98 70.3 143.98 70.29 143.98 70.28 143.98 70.27 143.98 70.26 143.98 70.25 143.98 70.24 143.98 70.23 143.98 70.22 143.98 70.21 143.98 70.19 143.98 70.18 143.98 70.17 143.98 70.16 143.98 70.16 143.98 70.15 143.98 70.13 143.98 70.12 143.98 70.11 143.98 70.1 143.98 70.09 143.98 70.09 143.98 70.07 143.97 70.06 143.97 70.05 143.97 70.03 143.97 70.01 143.97 69.99 143.97 69.99 143.97 69.98 143.97 69.97 143.97 69.95 143.97 69.95 143.97 69.93 143.97 69.92 143.97 69.91 143.97 69.91 143.97 69.9 143.97 69.89 143.97 69.88 143.97 69.87 143.97 69.85 143.97 69.84 143.97 69.83 143.97 69.83 143.97 69.82 143.97 69.8 143.97 69.79 143.97 69.78 143.97 69.77 143.97 69.76 143.97 69.75 143.97 69.74 143.97 69.73 143.96 69.72 143.96 69.71 143.96 69.7 143.96 69.69 143.96 69.68 143.96 69.67 143.96 69.66 143.96 69.65 143.96 69.64 143.96 69.63 143.96 69.62 143.96 69.61 143.96 69.6 143.96 69.59 143.96 69.58 143.96 69.57 143.96 69.56 143.96 69.55 143.96 69.54 143.96 69.53 143.96 69.52 143.96 69.51 143.96 69.5 143.96 69.49 143.96 69.48 143.96 69.47 143.96 69.46 143.96 69.45 143.96 69.44 143.96 69.43 143.96 69.42 143.95 69.4 143.95 69.38 143.95 69.36 143.95 69.35 143.95 69.34 143.95 69.33 143.95 69.32 143.95 69.31 143.95 69.3 143.95 69.29 143.95 69.28 143.95 69.27 143.95 69.26 143.95 69.25 143.95 69.24 143.95 69.23 143.95 69.22 143.95 69.21 143.95 69.2 143.95 69.19 143.95 69.18 143.95 69.17 143.95 69.16 143.95 69.15 143.94 69.14 143.94 69.13 143.94 69.12 143.94 69.11 143.94 69.1 143.94 69.09 143.94 69.08 143.94 69.07 143.94 69.06 143.94 69.05 143.94 69.04 143.94 69.03 143.94 69.02 143.94 69.01 143.94 69 143.94 68.99 143.94 68.98 143.94 68.97 143.94 68.96 143.94 68.95 143.94 68.94 143.94 68.93 143.94 68.92 143.94 68.91 143.93 68.9 143.93 68.89 143.93 68.88 143.93 68.87 143.93 68.86 143.93 68.85 143.93 68.83 143.93 68.83 143.93 68.82 143.93 68.8 143.93 68.79 143.93 68.77 143.93 68.77 143.93 68.76 143.93 68.76 143.93 68.74 143.93 68.72 143.93 68.7 143.93 68.69 143.93 68.68 143.92 68.67 143.92 68.66 143.92 68.65 143.92 68.64 143.92 68.63 143.92 68.62 143.92 68.61 143.92 68.6 143.92 68.59 143.92 68.58 143.92 68.57 143.92 68.56 143.92 68.55 143.92 68.54 143.92 68.53 143.92 68.52 143.92 68.51 143.92 68.5 143.92 68.49 143.92 68.48 143.92 68.47 143.91 68.46 143.91 68.45 143.91 68.44 143.91 68.43 143.91 68.42 143.91 68.4 143.91 68.39 143.91 68.38 143.91 68.38 143.91 68.37 143.91 68.35 143.91 68.34 143.91 68.33 143.91 68.33 143.91 68.31 143.91 68.31 143.91 68.29 143.91 68.28 143.91 68.27 143.91 68.26 143.9 68.26 143.9 68.25 143.9 68.23 143.9 68.22 143.9 68.21 143.9 68.2 143.9 68.19 143.9 68.18 143.9 68.17 143.9 68.16 143.9 68.15 143.9 68.14 143.9 68.13 143.9 68.12 143.9 68.1 143.9 68.08 143.9 68.06 143.89 68.06 143.89 68.05 143.89 68.05 143.89 68.03 143.89 68.02 143.89 68.01 143.89 67.99 143.89 67.98 143.89 67.97 143.89 67.96 143.89 67.95 143.89 67.95 143.89 67.94 143.89 67.92 143.89 67.91 143.89 67.9 143.89 67.89 143.88 67.89 143.88 67.88 143.88 67.86 143.88 67.85 143.88 67.84 143.88 67.83 143.88 67.82 143.88 67.81 143.88 67.8 143.88 67.79 143.88 67.78 143.88 67.77 143.88 67.76 143.88 67.75 143.88 67.74 143.88 67.73 143.88 67.72 143.88 67.71 143.87 67.7 143.87 67.69 143.87 67.68 143.87 67.67 143.87 67.66 143.87 67.65 143.87 67.64 143.87 67.63 143.87 67.62 143.87 67.61 143.87 67.6 143.87 67.59 143.87 67.58 143.87 67.57 143.87 67.56 143.87 67.55 143.86 67.54 143.86 67.53 143.86 67.52 143.86 67.51 143.86 67.5 143.86 67.49 143.86 67.48 143.86 67.47 143.86 67.45 143.86 67.44 143.86 67.43 143.86 67.42 143.86 67.41 143.86 67.39 143.85 67.37 143.85 67.37 143.85 67.36 143.85 67.36 143.85 67.34 143.85 67.33 143.85 67.31 143.85 67.31 143.85 67.3 143.85 67.29 143.85 67.28 143.85 67.26 143.85 67.25 143.85 67.24 143.85 67.24 143.84 67.23 143.84 67.22 143.84 67.2 143.84 67.19 143.84 67.19 143.84 67.17 143.84 67.17 143.84 67.15 143.84 67.14 143.84 67.13 143.84 67.12 143.84 67.12 143.84 67.11 143.84 67.09 143.84 67.08 143.83 67.07 143.83 67.06 143.83 67.05 143.83 67.04 143.83 67.03 143.83 67.02 143.83 67.01 143.83 67 143.83 66.99 143.83 66.98 143.83 66.97 143.83 66.96 143.83 66.95 143.83 66.94 143.83 66.93 143.82 66.92 143.82 66.91 143.82 66.9 143.82 66.89 143.82 66.88 143.82 66.87 143.82 66.86 143.82 66.85 143.82 66.83 143.82 66.82 143.82 66.82 143.82 66.81 143.82 66.8 143.82 66.78 143.81 66.76 143.81 66.74 143.81 66.74 143.81 66.73 143.81 66.73 143.81 66.71 143.81 66.7 143.81 66.68 143.81 66.68 143.81 66.67 143.81 66.66 143.81 66.65 143.8 66.64 143.8 66.62 143.8 66.62 143.8 66.61 143.8 66.6 143.8 66.59 143.8 66.58 143.8 66.56 143.8 66.55 143.8 66.55 143.8 66.54 143.8 66.53 143.8 66.51 143.79 66.5 143.79 66.5 143.79 66.49 143.79 66.48 143.79 66.47 143.79 66.45 143.79 66.44 143.79 66.43 143.79 66.43 143.79 66.42 143.79 66.41 143.79 66.39 143.78 66.38 143.78 66.38 143.78 66.36 143.78 66.36 143.78 66.35 143.78 66.33 143.78 66.32 143.78 66.31 143.78 66.31 143.78 66.3 143.78 66.28 143.78 66.27 143.78 66.26 143.77 66.25 143.77 66.24 143.77 66.24 143.77 66.22 143.77 66.21 143.77 66.2 143.77 66.19 143.77 66.18 143.77 66.18 143.77 66.16 143.77 66.14 143.76 66.12 143.76 66.11 143.76 66.11 143.76 66.11 143.76 66.09 143.76 66.08 143.76 66.06 143.76 66.05 143.76 66.04 143.76 66.04 143.76 66.02 143.76 66.01 143.75 66 143.75 65.99 143.75 65.98 143.75 65.97 143.75 65.96 143.75 65.95 143.75 65.94 143.75 65.93 143.75 65.92 143.75 65.91 143.75 65.9 143.75 65.89 143.74 65.88 143.74 65.87 143.74 65.86 143.74 65.85 143.74 65.84 143.74 65.83 143.74 65.82 143.74 65.81 143.74 65.8 143.74 65.79 143.74 65.78 143.73 65.77 143.73 65.75 143.73 65.75 143.73 65.74 143.73 65.73 143.73 65.72 143.73 65.71 143.73 65.7 143.73 65.69 143.73 65.68 143.73 65.67 143.73 65.66 143.72 65.64 143.72 65.63 143.72 65.62 143.72 65.62 143.72 65.61 143.72 65.59 143.72 65.58 143.72 65.56 143.72 65.56 143.72 65.55 143.72 65.55 143.72 65.51 143.71 65.47 143.71 65.43 143.7 65.42 143.7 65.42 143.7 65.41 143.7 65.4 143.7 65.38 143.7 65.37 143.7 65.36 143.7 65.36 143.7 65.35 143.7 65.34 143.7 65.32 143.69 65.31 143.69 65.3 143.69 65.3 143.69 65.29 143.69 65.28 143.69 65.26 143.69 65.25 143.69 65.24 143.69 65.23 143.69 65.23 143.69 65.22 143.68 65.2 143.68 65.19 143.68 65.18 143.68 65.17 143.68 65.17 143.68 65.15 143.68 65.14 143.68 65.13 143.68 65.12 143.68 65.11 143.67 65.11 143.67 65.09 143.67 65.08 143.67 65.07 143.67 65.06 143.67 65.06 143.67 65.05 143.67 65.03 143.67 65.02 143.67 65.01 143.66 65 143.66 64.99 143.66 64.99 143.66 64.97 143.66 64.96 143.66 64.95 143.66 64.94 143.66 64.93 143.66 64.93 143.66 64.89 143.65 64.85 143.65 64.8 143.64 64.8 143.64 64.8 143.64 64.8 143.64 64.78 143.64 64.76 143.64 64.74 143.64 64.74 143.64 64.74 143.64 64.74 143.64 64.72 143.64 64.7 143.63 64.69 143.63 64.68 143.63 64.68 143.63 64.67 143.63 64.65 143.63 64.64 143.63 64.62 143.63 64.62 143.63 64.61 143.63 64.61 143.63 64.59 143.62 64.58 143.62 64.56 143.62 64.56 143.62 64.55 143.62 64.55 143.62 64.53 143.62 64.52 143.62 64.5 143.61 64.5 143.61 64.49 143.61 64.49 143.61 64.47 143.61 64.46 143.61 64.44 143.61 64.44 143.61 64.43 143.61 64.42 143.61 64.41 143.6 64.39 143.6 64.38 143.6 64.37 143.6 64.37 143.6 64.37 143.6 64.35 143.6 64.33 143.6 64.32 143.59 64.31 143.59 64.31 143.59 64.3 143.59 64.24 143.59 64.18 143.58 64.12 143.57 64.12 143.57 64.11 143.57 64.11 143.57 64.1 143.57 64.08 143.57 64.06 143.57 64.06 143.57 64.05 143.57 64.04 143.57 64.03 143.56 64.02 143.56 64 143.56 64 143.56 63.99 143.56 63.98 143.56 63.97 143.56 63.96 143.56 63.94 143.55 63.94 143.55 63.93 143.55 63.92 143.55 63.91 143.55 63.9 143.55 63.88 143.55 63.88 143.55 63.87 143.55 63.86 143.55 63.85 143.54 63.84 143.54 63.82 143.54 63.82 143.54 63.81 143.54 63.8 143.54 63.79 143.54 63.77 143.54 63.76 143.53 63.75 143.53 63.75 143.53 63.74 143.53 63.73 143.53 63.71 143.53 63.7 143.53 63.69 143.53 63.69 143.53 63.68 143.52 63.62 143.52 63.56 143.51 63.5 143.5 63.5 143.5 63.5 143.5 63.5 143.5 63.48 143.5 63.46 143.5 63.44 143.5 63.44 143.5 63.43 143.5 63.43 143.49 63.41 143.49 63.4 143.49 63.38 143.49 63.38 143.49 63.37 143.49 63.37 143.49 63.35 143.49 63.34 143.48 63.32 143.48 63.31 143.48 63.31 143.48 63.31 143.48 63.29 143.48 63.27 143.48 63.26 143.47 63.26 143.47 63.25 143.47 63.25 143.47 63.23 143.47 63.22 143.47 63.2 143.47 63.19 143.47 63.19 143.47 63.18 143.47 63.17 143.46 63.15 143.46 63.14 143.46 63.13 143.46 63.13 143.46 63.12 143.46 63.11 143.46 63.09 143.45 63.07 143.45 63.07 143.45 63.07 143.45 63.06 143.45 63.05 143.45 63.03 143.45 63.01 143.44 63.01 143.44 63 143.44 63 143.44 62.94 143.44 62.88 143.43 62.82 143.42 62.82 143.42 62.82 143.42 62.82 143.42 62.8 143.42 62.78 143.42 62.76 143.41 62.76 143.41 62.76 143.41 62.75 143.41 62.74 143.41 62.72 143.41 62.7 143.41 62.7 143.4 62.69 143.4 62.69 143.4 62.67 143.4 62.66 143.4 62.64 143.4 62.64 143.4 62.63 143.4 62.63 143.4 62.61 143.39 62.6 143.39 62.58 143.39 62.58 143.39 62.57 143.39 62.57 143.39 62.55 143.39 62.53 143.38 62.52 143.38 62.51 143.38 62.51 143.38 62.51 143.38 62.49 143.38 62.47 143.38 62.46 143.37 62.45 143.37 62.45 143.37 62.45 143.37 62.35 143.36 62.24 143.34 62.14 143.33 62.14 143.33 62.14 143.33 62.14 143.33 62.12 143.33 62.1 143.33 62.08 143.32 62.08 143.32 62.08 143.32 62.08 143.32 62.06 143.32 62.04 143.32 62.02 143.31 62.02 143.31 62.02 143.31 62.01 143.31 62 143.31 61.98 143.31 61.96 143.31 61.96 143.31 61.95 143.3 61.95 143.3 61.93 143.3 61.92 143.3 61.9 143.3 61.9 143.3 61.89 143.3 61.89 143.3 59.95 143.02 58.02 142.67 56.13 142.24 56.13 142.24 57.01 138.34 57.01 138.34 61.9 139.44 66.94 140 72 140 72 140 72 144 72 144 72 144 72 144 72 144 72 144 72 144 72 144ZM 44.7 138.64C 41.85 137.48 39.1 136.13 36.45 134.62 36.45 134.62 36.44 134.62 36.44 134.62 36.43 134.61 36.42 134.61 36.4 134.6 36.4 134.6 36.4 134.6 36.39 134.59 36.38 134.59 36.36 134.58 36.35 134.57 36.35 134.57 36.35 134.57 36.35 134.57 36.27 134.52 36.19 134.48 36.12 134.44 36.12 134.43 36.11 134.43 36.11 134.43 36.1 134.42 36.09 134.42 36.07 134.41 36.07 134.41 36.07 134.41 36.06 134.4 36.05 134.4 36.04 134.39 36.02 134.38 36.02 134.38 36.02 134.38 36.01 134.38 36 134.37 35.99 134.36 35.98 134.35 35.97 134.35 35.97 134.35 35.97 134.35 35.91 134.31 35.85 134.28 35.79 134.25 35.79 134.25 35.79 134.24 35.78 134.24 35.77 134.23 35.76 134.23 35.74 134.22 35.74 134.22 35.74 134.22 35.74 134.21 35.72 134.21 35.71 134.2 35.7 134.19 35.69 134.19 35.69 134.19 35.68 134.18 35.67 134.18 35.66 134.17 35.65 134.16 35.64 134.16 35.64 134.16 35.63 134.15 35.63 134.15 35.61 134.14 35.6 134.14 35.6 134.13 35.59 134.13 35.58 134.13 35.57 134.12 35.56 134.11 35.55 134.11 35.55 134.11 35.55 134.11 35.55 134.1 35.52 134.09 35.5 134.07 35.47 134.06 35.47 134.06 35.46 134.05 35.46 134.05 35.45 134.04 35.44 134.04 35.43 134.03 35.42 134.03 35.41 134.02 35.4 134.02 35.4 134.01 35.39 134.01 35.38 134 35.37 134 35.36 133.99 35.35 133.99 35.35 133.99 35.34 133.98 35.33 133.97 35.32 133.97 35.31 133.96 35.3 133.96 35.29 133.95 35.29 133.95 35.28 133.94 35.27 133.94 35.26 133.93 35.25 133.93 35.24 133.92 35.24 133.92 35.23 133.92 35.22 133.91 35.21 133.9 35.2 133.9 35.19 133.89 35.19 133.89 35.18 133.89 35.16 133.88 35.15 133.87 35.13 133.86 35.12 133.85 35.12 133.85 35.11 133.85 35.1 133.84 35.09 133.83 35.08 133.83 35.07 133.82 35.06 133.82 35.06 133.81 35.05 133.81 35.04 133.8 35.03 133.8 35.02 133.79 35.01 133.79 35.01 133.78 35 133.78 34.99 133.77 34.98 133.77 34.97 133.76 34.96 133.76 34.96 133.75 34.95 133.75 34.94 133.74 34.93 133.73 34.92 133.73 34.91 133.73 34.91 133.72 34.9 133.72 34.89 133.71 34.88 133.7 34.87 133.7 34.86 133.7 34.86 133.69 34.84 133.68 34.83 133.68 34.82 133.67 34.81 133.67 34.81 133.66 34.81 133.66 34.79 133.65 34.77 133.64 34.76 133.63 34.75 133.63 34.75 133.63 34.74 133.62 34.73 133.62 34.72 133.61 34.7 133.6 34.7 133.6 34.7 133.59 34.69 133.59 34.68 133.58 34.67 133.58 34.65 133.57 34.65 133.57 34.64 133.56 34.64 133.56 34.63 133.55 34.61 133.55 34.6 133.54 34.6 133.54 34.59 133.53 34.59 133.53 34.58 133.52 34.56 133.51 34.55 133.51 34.55 133.5 34.54 133.5 34.54 133.5 34.52 133.49 34.51 133.48 34.49 133.47 34.49 133.47 34.49 133.47 34.49 133.47 34.47 133.46 34.45 133.45 34.44 133.44 34.44 133.44 34.44 133.44 34.43 133.44 34.42 133.42 34.4 133.41 34.38 133.4 34.38 133.4 34.38 133.4 34.38 133.4 34.36 133.39 34.35 133.38 34.33 133.37 34.33 133.37 34.33 133.37 34.32 133.36 34.31 133.36 34.29 133.35 34.28 133.34 34.27 133.34 34.27 133.34 34.27 133.33 34.26 133.33 34.24 133.32 34.23 133.31 34.23 133.31 34.22 133.3 34.22 133.3 34.2 133.29 34.19 133.29 34.18 133.28 34.17 133.27 34.17 133.27 34.17 133.27 34.15 133.26 34.14 133.25 34.12 133.24 34.12 133.24 34.12 133.24 34.12 133.24 34.08 133.22 34.05 133.2 34.01 133.17 34.01 133.17 34.01 133.17 34 133.17 33.99 133.16 33.97 133.15 33.96 133.14 33.96 133.14 33.96 133.14 33.95 133.14 33.94 133.13 33.92 133.12 33.91 133.11 33.91 133.11 33.9 133.11 33.9 133.11 33.89 133.1 33.87 133.09 33.86 133.08 33.85 133.08 33.85 133.07 33.85 133.07 33.83 133.06 33.82 133.05 33.8 133.04 33.8 133.04 33.8 133.04 33.8 133.04 33.73 133 33.66 132.95 33.59 132.91 33.59 132.91 33.59 132.91 33.59 132.91 33.57 132.9 33.55 132.89 33.54 132.88 33.54 132.88 33.53 132.87 33.53 132.87 33.52 132.86 33.5 132.85 33.48 132.84 33.48 132.84 33.48 132.84 33.48 132.84 33.38 132.78 33.27 132.71 33.17 132.64 33.17 132.64 33.17 132.64 33.17 132.64 32.33 132.1 31.5 131.55 30.69 130.98 30.69 130.98 32.99 127.7 32.99 127.7 37.11 130.6 41.57 133.04 46.21 134.94 46.21 134.94 44.7 138.64 44.7 138.64 44.7 138.64 44.7 138.64 44.7 138.64ZM 21.48 123.3C 21.43 123.25 21.37 123.2 21.32 123.14 21.32 123.14 21.32 123.14 21.32 123.14 21.31 123.13 21.3 123.12 21.28 123.11 21.28 123.1 21.28 123.1 21.28 123.1 21.27 123.09 21.26 123.08 21.25 123.07 21.24 123.07 21.24 123.06 21.23 123.06 21.22 123.05 21.21 123.04 21.21 123.03 21.2 123.02 21.2 123.02 21.19 123.02 21.18 123.01 21.18 123 21.17 122.99 21.16 122.98 21.16 122.98 21.15 122.98 21.14 122.96 21.12 122.95 21.11 122.93 21.1 122.93 21.09 122.92 21.09 122.91 21.08 122.9 21.08 122.9 21.07 122.89 21.06 122.89 21.05 122.88 21.05 122.87 21.04 122.86 21.03 122.86 21.03 122.85 21.02 122.84 21.01 122.83 21 122.83 21 122.82 20.99 122.81 20.99 122.81 20.98 122.8 20.97 122.79 20.96 122.78 20.96 122.78 20.95 122.77 20.95 122.77 20.94 122.76 20.93 122.75 20.92 122.74 20.91 122.73 20.91 122.73 20.9 122.73 20.89 122.71 20.88 122.7 20.87 122.69 20.87 122.69 20.86 122.69 20.86 122.69 20.83 122.66 20.81 122.63 20.78 122.6 20.77 122.6 20.77 122.6 20.77 122.59 20.76 122.58 20.75 122.57 20.74 122.56 20.73 122.55 20.73 122.55 20.73 122.55 20.72 122.54 20.7 122.52 20.69 122.51 20.69 122.51 20.69 122.51 20.68 122.51 20.67 122.49 20.66 122.48 20.65 122.47 20.64 122.46 20.65 122.46 20.64 122.46 20.57 122.39 20.5 122.32 20.43 122.24 20.43 122.24 20.43 122.24 20.43 122.24 18.67 120.44 17.01 118.54 15.45 116.56 15.45 116.56 15.44 116.56 15.44 116.56 15.43 116.55 15.42 116.53 15.41 116.52 15.41 116.52 15.41 116.51 15.41 116.51 15.33 116.42 15.25 116.32 15.18 116.22 15.18 116.22 15.17 116.22 15.17 116.22 15.16 116.2 15.15 116.19 15.14 116.17 15.14 116.17 15.14 116.17 15.14 116.17 15.08 116.1 15.03 116.04 14.98 115.97 14.98 115.97 14.98 115.97 14.98 115.97 14.97 115.96 14.96 115.94 14.95 115.93 14.95 115.92 14.94 115.92 14.94 115.92 14.93 115.9 14.92 115.89 14.91 115.88 14.91 115.88 14.91 115.87 14.9 115.87 14.89 115.86 14.88 115.84 14.87 115.83 14.87 115.83 14.87 115.82 14.87 115.82 14.83 115.77 14.79 115.72 14.75 115.68 14.75 115.68 14.75 115.68 14.75 115.68 14.74 115.66 14.73 115.65 14.72 115.63 14.72 115.63 14.71 115.62 14.71 115.62 14.7 115.61 14.69 115.59 14.68 115.58 14.68 115.58 14.68 115.57 14.68 115.57 14.67 115.56 14.66 115.55 14.65 115.53 14.64 115.53 14.64 115.53 14.64 115.52 14.63 115.51 14.62 115.49 14.61 115.48 14.6 115.48 14.6 115.48 14.6 115.48 14.57 115.43 14.53 115.38 14.49 115.33 14.49 115.33 14.49 115.32 14.49 115.32 14.48 115.31 14.47 115.29 14.46 115.28 14.45 115.28 14.45 115.27 14.45 115.27 14.44 115.26 14.43 115.25 14.42 115.23 14.42 115.23 14.42 115.23 14.41 115.22 14.4 115.21 14.39 115.19 14.38 115.18 14.38 115.18 14.38 115.18 14.38 115.18 14.36 115.16 14.35 115.14 14.34 115.13 14.34 115.13 14.34 115.13 14.34 115.13 14.32 115.09 14.29 115.06 14.27 115.03 14.26 115.03 14.26 115.02 14.26 115.02 14.25 115.01 14.24 114.99 14.23 114.98 14.23 114.98 14.22 114.97 14.22 114.97 14.21 114.96 14.2 114.95 14.2 114.93 14.19 114.93 14.19 114.92 14.19 114.92 14.18 114.91 14.17 114.89 14.16 114.88 14.15 114.88 14.15 114.88 14.15 114.87 14.14 114.86 14.13 114.85 14.12 114.83 14.12 114.83 14.12 114.83 14.11 114.82 14.09 114.79 14.07 114.76 14.04 114.73 14.04 114.72 14.04 114.72 14.04 114.72 14.03 114.71 14.02 114.69 14.01 114.68 14 114.68 14 114.67 14 114.67 13.99 114.65 13.98 114.64 13.97 114.63 13.97 114.63 13.96 114.62 13.96 114.62 13.95 114.6 13.94 114.59 13.94 114.58 13.93 114.58 13.93 114.57 13.93 114.57 13.92 114.56 13.91 114.54 13.9 114.53 13.9 114.53 13.89 114.52 13.89 114.52 13.88 114.51 13.87 114.49 13.86 114.48 13.86 114.48 13.86 114.47 13.86 114.47 13.84 114.46 13.83 114.44 13.82 114.42 13.82 114.42 13.82 114.42 13.82 114.42 13.81 114.4 13.79 114.39 13.78 114.37 13.78 114.37 13.78 114.37 13.78 114.37 13.77 114.35 13.76 114.34 13.75 114.33 13.75 114.32 13.74 114.32 13.74 114.31 13.73 114.3 13.72 114.29 13.71 114.28 13.71 114.27 13.71 114.27 13.7 114.26 13.7 114.25 13.69 114.24 13.68 114.23 13.68 114.23 13.67 114.22 13.67 114.22 13.66 114.2 13.65 114.19 13.64 114.18 13.64 114.17 13.64 114.17 13.63 114.17 13.61 114.14 13.59 114.1 13.56 114.07 13.56 114.07 13.56 114.07 13.56 114.06 13.55 114.05 13.54 114.04 13.53 114.02 13.53 114.02 13.52 114.01 13.52 114.01 13.51 114 13.5 113.98 13.49 113.97 13.49 113.97 13.49 113.97 13.49 113.96 13.48 113.95 13.47 113.94 13.46 113.92 13.45 113.92 13.45 113.92 13.45 113.91 13.44 113.9 13.43 113.88 13.42 113.87 13.42 113.87 13.42 113.87 13.41 113.86 13.38 113.81 13.34 113.76 13.31 113.71 13.31 113.71 13.31 113.71 13.3 113.71 13.29 113.69 13.28 113.68 13.27 113.66 13.27 113.66 13.27 113.66 13.27 113.66 13.26 113.64 13.25 113.63 13.24 113.61 13.24 113.61 13.23 113.61 13.23 113.61 13.22 113.59 13.21 113.58 13.2 113.56 13.2 113.56 13.2 113.56 13.2 113.56 13.16 113.51 13.13 113.46 13.09 113.41 13.09 113.41 13.09 113.4 13.09 113.4 13.08 113.39 13.07 113.37 13.06 113.36 13.06 113.36 13.05 113.35 13.05 113.35 13.04 113.34 13.03 113.32 13.02 113.31 13.02 113.31 13.02 113.3 13.02 113.3 13.01 113.29 12.99 113.27 12.98 113.25 12.98 113.25 12.98 113.25 12.98 113.25 12.44 112.48 11.92 111.7 11.41 110.91 11.41 110.91 14.77 108.75 14.77 108.75 17.5 112.98 20.7 116.92 24.29 120.45 24.29 120.45 21.48 123.3 21.48 123.3 21.48 123.3 21.48 123.3 21.48 123.3ZM 5.79 100.33C 3.71 95.48 2.15 90.36 1.18 85.04 1.18 85.04 5.11 84.32 5.11 84.32 6.02 89.27 7.48 94.13 9.46 98.75 9.46 98.75 5.79 100.33 5.79 100.33 5.79 100.33 5.79 100.33 5.79 100.33ZM 0.01 73.11C 0.01 72.95 0 72.8 0 72.64 0 72.64 0 72.64 0 72.64 0 72.63 0 72.61 0 72.6 0 72.59 0 72.58 0 72.57 0 72.56 0 72.55 0 72.54 0 72.53 0 72.52 0 72.5 0 72.5 0 72.48 0 72.48 0 72.46 0 72.45 0 72.43 0 72.43 0 72.42 0 72.41 0 72.37 0 72.33 0 72.28 0 72.28 0 72.27 0 72.27 0 72.25 0 72.23 0 72.22 0 72.21 0 72.2 0 72.2 0 72.18 0 72.17 0 72.15 0 72.15 0 72.14 0 72.13 0 72.12 0 72.1 0 72.09 0 72.08 0 72.07 0 72.06-0 72.04-0 72.02-0 72-0 72-0 72-0 72-0 71.98-0 71.96 0 71.94 0 71.94 0 71.93 0 71.93 0 71.91 0 71.9 0 71.88 0 71.88 0 71.87 0 71.87 0 71.85 0 71.84 0 71.82 0 71.82 0 71.81 0 71.8 0 71.79 0 71.78 0 71.76 0 71.75 0 71.75 0 71.74 0 71.73 0 71.72 0 71.71 0 71.7 0 71.69 0 71.68 0 71.67 0 71.66 0 71.65 0 71.64 0 71.63 0 71.62 0 71.61 0 71.6 0 71.59 0 71.58 0 71.57 0 71.56 0 71.55 0 71.54 0 71.53 0 71.52 0 71.51 0 71.5 0 71.49 0 71.48 0 71.47 0 71.46 0 71.45 0 71.44 0 71.43 0 71.42 0 71.41 0 71.4 0 71.39 0 71.39 0 71.37 0 71.36 0 71.35 0 71.34 0 71.34 0 71.33 0 71.32 0 71.31 0 71.3 0 71.29 0 71.27 0 71.27 0 71.26 0 71.25 0 71.24 0 71.23 0 71.22 0 71.21 0 71.2 0 71.19 0 71.18 0 71.17 0 71.16 0 71.15 0.01 71.14 0.01 71.13 0.01 71.12 0.01 71.11 0.01 71.1 0.01 71.09 0.01 71.08 0.01 71.07 0.01 71.06 0.01 71.05 0.01 71.04 0.01 71.03 0.01 71.02 0.01 71.01 0.01 71 0.01 70.99 0.01 70.98 0.01 70.97 0.01 70.96 0.01 70.95 0.01 70.94 0.01 70.93 0.01 70.93 0.01 70.91 0.01 70.9 0.01 70.89 0.01 70.88 0.01 70.88 0.01 70.87 0.01 70.86 0.01 70.85 0.01 70.84 0.01 70.83 0.01 70.82 0.01 70.81 0.01 70.8 0.01 70.79 0.01 70.78 0.01 70.77 0.01 70.76 0.01 70.75 0.01 70.74 0.01 70.73 0.01 70.72 0.01 70.71 0.01 70.7 0.01 70.69 0.01 70.68 0.01 70.67 0.01 70.66 0.01 70.65 0.01 70.64 0.01 70.63 0.01 70.62 0.01 70.61 0.01 70.6 0.01 70.59 0.01 70.58 0.01 70.57 0.01 70.56 0.01 70.55 0.01 70.54 0.01 70.53 0.01 70.52 0.02 70.51 0.02 70.5 0.02 70.49 0.02 70.48 0.02 70.48 0.02 70.47 0.02 70.45 0.02 70.44 0.02 70.43 0.02 70.43 0.02 70.42 0.02 70.41 0.02 70.4 0.02 70.39 0.02 70.38 0.02 70.37 0.02 70.36 0.02 70.35 0.02 70.34 0.02 70.33 0.02 70.32 0.02 70.31 0.02 70.3 0.02 70.29 0.02 70.28 0.02 70.27 0.02 70.26 0.02 70.25 0.02 70.24 0.02 70.23 0.02 70.22 0.02 70.21 0.02 70.2 0.02 70.19 0.02 70.18 0.02 70.17 0.02 70.16 0.02 70.15 0.02 70.14 0.02 70.13 0.02 70.12 0.02 70.11 0.02 70.1 0.02 70.09 0.02 70.08 0.03 70.08 0.03 70.07 0.03 70.06 0.03 70.05 0.03 70.04 0.03 70.03 0.03 70.02 0.03 70.01 0.03 70 0.03 69.99 0.03 69.98 0.03 69.97 0.03 69.96 0.03 69.95 0.03 69.94 0.03 69.93 0.03 69.92 0.03 69.91 0.03 69.9 0.03 69.89 0.03 69.88 0.03 69.87 0.03 69.86 0.03 69.85 0.03 69.84 0.03 69.83 0.03 69.82 0.03 69.81 0.03 69.8 0.03 69.79 0.03 69.78 0.03 69.77 0.03 69.76 0.03 69.75 0.03 69.74 0.03 69.73 0.04 69.73 0.04 69.72 0.04 69.71 0.04 69.69 0.04 69.69 0.04 69.68 0.04 69.67 0.04 69.66 0.04 69.65 0.04 69.63 0.04 69.63 0.04 69.62 0.04 69.61 0.04 69.6 0.04 69.59 0.04 69.58 0.04 69.57 0.04 69.56 0.04 69.55 0.04 69.55 0.04 69.53 0.04 69.52 0.04 69.51 0.04 69.5 0.04 69.5 0.04 69.49 0.04 69.47 0.04 69.47 0.04 69.45 0.04 69.44 0.04 69.44 0.05 69.43 0.05 69.42 0.05 69.41 0.05 69.39 0.05 69.39 0.05 69.38 0.05 69.37 0.05 69.36 0.05 69.35 0.05 69.34 0.05 69.33 0.05 69.32 0.05 69.31 0.05 69.3 0.05 69.29 0.05 69.28 0.05 69.27 0.05 69.26 0.05 69.25 0.05 69.24 0.05 69.23 0.05 69.22 0.05 69.21 0.05 69.2 0.05 69.2 0.05 69.18 0.05 69.17 0.06 69.16 0.06 69.16 0.06 69.16 0.06 69.16 0.06 69.14 0.06 69.12 0.06 69.1 0.06 69.09 0.06 69.09 0.06 69.08 0.06 69.02 0.06 68.95 0.07 68.89 0.07 68.88 0.07 68.88 0.07 68.87 0.07 68.86 0.07 68.84 0.07 68.83 0.07 68.82 0.07 68.82 0.07 68.81 0.07 68.8 0.07 68.79 0.07 68.78 0.07 68.77 0.07 68.76 0.07 68.75 0.07 68.74 0.07 68.72 0.07 68.71 0.07 68.71 0.07 68.7 0.07 68.7 0.08 68.68 0.08 68.67 0.08 68.66 0.08 68.65 0.08 68.64 0.08 68.64 0.08 68.62 0.08 68.61 0.08 68.59 0.08 68.59 0.08 68.59 0.08 68.58 0.08 68.57 0.08 68.56 0.08 68.54 0.08 68.54 0.08 68.53 0.08 68.52 0.08 68.51 0.08 68.5 0.08 68.48 0.08 68.48 0.08 68.47 0.09 68.46 0.09 68.45 0.09 68.44 0.09 68.43 0.09 68.42 0.09 68.41 0.09 68.41 0.09 68.4 0.09 68.38 0.09 68.37 0.09 68.36 0.09 68.36 0.09 68.35 0.09 68.34 0.09 68.32 0.09 68.31 0.09 68.31 0.09 68.3 0.09 68.29 0.09 68.28 0.1 68.26 0.1 68.25 0.1 68.25 0.1 68.24 0.1 68.23 0.1 68.22 0.1 68.21 0.1 68.2 0.1 68.19 0.1 68.18 0.1 68.17 0.1 68.16 0.1 68.15 0.1 68.14 0.1 68.13 0.1 68.12 0.1 68.12 0.1 68.1 0.1 68.09 0.1 68.08 0.11 68.07 0.11 68.07 0.11 68.06 0.11 68.05 0.11 68.03 0.11 68.02 0.11 68.01 0.11 68.01 0.11 68 0.11 67.99 0.11 67.97 0.11 67.96 0.11 67.96 0.11 67.95 0.11 67.94 0.11 67.93 0.11 67.92 0.11 67.91 0.11 67.9 0.12 67.89 0.12 67.89 0.12 67.87 0.12 67.86 0.12 67.85 0.12 67.84 0.12 67.83 0.12 67.83 0.12 67.81 0.12 67.8 0.12 67.79 0.12 67.78 0.12 67.78 0.12 67.77 0.12 67.76 0.12 67.74 0.12 67.73 0.12 67.72 0.13 67.72 0.13 67.71 0.13 67.7 0.13 67.69 0.13 67.67 0.13 67.67 0.13 67.66 0.13 67.65 0.13 67.64 0.13 67.63 0.13 67.62 0.13 67.61 0.13 67.6 0.13 67.6 0.13 67.58 0.13 67.57 0.13 67.56 0.14 67.55 0.14 67.55 0.14 67.54 0.14 67.52 0.14 67.51 0.14 67.5 0.14 67.49 0.14 67.49 0.14 67.48 0.14 67.47 0.14 67.46 0.14 67.44 0.14 67.44 0.14 67.43 0.14 67.42 0.14 67.41 0.14 67.4 0.15 67.39 0.15 67.38 0.15 67.37 0.15 67.36 0.15 67.35 0.15 67.34 0.15 67.33 0.15 67.32 0.15 67.31 0.15 67.31 0.15 67.29 0.15 67.28 0.15 67.27 0.15 67.26 0.15 67.26 0.15 67.25 0.16 67.24 0.16 67.22 0.16 67.21 0.16 67.21 0.16 67.2 0.16 67.19 0.16 67.18 0.16 67.17 0.16 67.16 0.16 67.15 0.16 67.14 0.16 67.13 0.16 67.12 0.16 67.11 0.16 67.1 0.16 67.09 0.17 67.08 0.17 67.08 0.17 67.07 0.17 67.05 0.17 67.04 0.17 67.03 0.17 67.03 0.17 67.02 0.17 67.01 0.17 66.99 0.17 66.98 0.17 66.97 0.17 66.97 0.17 66.97 0.17 66.95 0.18 66.94 0.18 66.92 0.18 66.92 0.18 66.91 0.18 66.9 0.18 66.89 0.18 66.88 0.18 66.86 0.18 66.86 0.18 66.86 0.18 66.85 0.18 66.84 0.18 66.82 0.18 66.81 0.18 66.8 0.19 66.8 0.19 66.79 0.19 66.78 0.19 66.76 0.19 66.75 0.19 66.74 0.19 66.74 0.19 66.73 0.19 66.72 0.19 66.7 0.19 66.69 0.19 66.69 0.19 66.68 0.19 66.68 0.19 66.66 0.2 66.65 0.2 66.63 0.2 66.63 0.2 66.63 0.2 66.62 0.2 66.61 0.2 66.59 0.2 66.58 0.2 66.57 0.2 66.57 0.2 66.57 0.2 66.55 0.2 66.54 0.21 66.52 0.21 66.52 0.21 66.51 0.21 66.51 0.21 66.49 0.21 66.48 0.21 66.46 0.21 66.46 0.21 66.46 0.21 66.45 0.45 63.31 0.89 60.23 1.52 57.21 1.52 57.21 5.44 58.03 5.44 58.03 4.48 62.59 4 67.29 4 72 4 72.35 4 72.7 4.01 73.05 4.01 73.05 0.01 73.11 0.01 73.11 0.01 73.11 0.01 73.11 0.01 73.11ZM 8.67 47.19C 8.67 47.19 4.94 45.73 4.94 45.73 5.87 43.37 6.92 41.07 8.08 38.84 8.08 38.84 8.08 38.83 8.08 38.83 8.08 38.82 8.09 38.81 8.1 38.79 8.1 38.79 8.1 38.79 8.1 38.78 8.11 38.77 8.12 38.76 8.12 38.74 8.13 38.74 8.13 38.74 8.13 38.73 8.14 38.72 8.14 38.71 8.15 38.69 8.15 38.69 8.15 38.69 8.16 38.68 8.16 38.67 8.17 38.66 8.18 38.64 8.18 38.64 8.18 38.63 8.18 38.63 8.2 38.59 8.23 38.55 8.25 38.51 8.25 38.51 8.25 38.5 8.25 38.49 8.26 38.48 8.26 38.48 8.27 38.47 8.27 38.46 8.28 38.45 8.28 38.44 8.29 38.43 8.29 38.42 8.3 38.42 8.3 38.41 8.31 38.4 8.31 38.39 8.31 38.38 8.32 38.37 8.32 38.37 8.33 38.36 8.33 38.35 8.34 38.34 8.34 38.33 8.35 38.32 8.35 38.31 8.36 38.3 8.36 38.29 8.37 38.28 8.37 38.28 8.37 38.27 8.38 38.26 8.38 38.25 8.39 38.24 8.4 38.22 8.4 38.22 8.4 38.21 8.4 38.21 8.42 38.17 8.44 38.14 8.46 38.1 8.46 38.1 8.46 38.1 8.46 38.1 8.47 38.08 8.48 38.07 8.49 38.05 8.49 38.05 8.49 38.05 8.49 38.04 8.5 38.03 8.51 38.01 8.52 38 8.52 37.99 8.52 37.99 8.52 37.99 8.53 37.97 8.54 37.96 8.55 37.94 8.55 37.94 8.55 37.94 8.55 37.94 9.73 35.76 11.01 33.64 12.39 31.6 12.39 31.6 15.7 33.85 15.7 33.85 12.87 38.02 10.5 42.51 8.67 47.19 8.67 47.19 8.67 47.19 8.67 47.19ZM 22.82 25.04C 22.82 25.04 19.92 22.28 19.92 22.28 20.31 21.88 20.69 21.48 21.09 21.09 21.09 21.09 21.09 21.09 21.09 21.09 21.1 21.07 21.11 21.06 21.13 21.05 21.13 21.05 21.13 21.05 21.13 21.05 21.14 21.04 21.15 21.02 21.16 21.01 21.16 21.01 21.16 21.01 21.17 21.01 21.24 20.94 21.32 20.86 21.39 20.79 21.39 20.79 21.39 20.78 21.4 20.78 21.41 20.77 21.42 20.76 21.43 20.75 21.43 20.75 21.43 20.74 21.44 20.74 21.45 20.73 21.46 20.72 21.47 20.71 21.47 20.71 21.47 20.71 21.48 20.7 21.49 20.69 21.5 20.68 21.51 20.67 21.51 20.67 21.51 20.67 21.51 20.67 21.55 20.63 21.58 20.6 21.61 20.57 21.62 20.56 21.62 20.56 21.63 20.55 21.64 20.55 21.64 20.54 21.65 20.53 21.66 20.52 21.66 20.52 21.67 20.51 21.68 20.51 21.68 20.5 21.69 20.49 21.7 20.48 21.71 20.48 21.71 20.47 21.72 20.46 21.73 20.46 21.73 20.45 21.74 20.44 21.75 20.44 21.75 20.43 21.76 20.43 21.77 20.42 21.78 20.41 21.78 20.4 21.79 20.4 21.8 20.39 21.8 20.38 21.81 20.38 21.82 20.37 21.83 20.36 21.84 20.35 21.84 20.34 21.85 20.33 21.86 20.32 21.87 20.31 21.88 20.31 21.89 20.3 21.9 20.29 21.9 20.29 21.91 20.28 21.92 20.27 21.93 20.26 21.93 20.26 21.94 20.25 21.95 20.24 21.95 20.24 21.96 20.23 21.97 20.22 21.98 20.22 21.98 20.21 21.99 20.2 22 20.2 22 20.19 22.01 20.18 22.02 20.17 22.03 20.17 22.03 20.16 22.04 20.16 22.04 20.15 22.05 20.14 22.06 20.13 22.07 20.12 22.08 20.12 22.08 20.11 22.09 20.11 22.11 20.08 22.14 20.05 22.17 20.03 22.17 20.03 22.17 20.02 22.18 20.02 22.19 20.01 22.2 20 22.21 19.99 22.22 19.98 22.22 19.98 22.23 19.98 22.24 19.96 22.25 19.95 22.26 19.94 22.26 19.94 22.27 19.94 22.27 19.94 22.28 19.92 22.29 19.91 22.3 19.9 22.31 19.9 22.31 19.9 22.31 19.89 22.32 19.88 22.34 19.87 22.35 19.86 22.35 19.86 22.35 19.85 22.35 19.85 22.4 19.81 22.44 19.77 22.49 19.72 22.49 19.72 22.49 19.72 22.49 19.72 22.5 19.71 22.52 19.7 22.53 19.68 22.54 19.68 22.54 19.68 22.54 19.68 22.55 19.67 22.56 19.65 22.58 19.64 22.58 19.64 22.58 19.64 22.58 19.64 22.6 19.62 22.61 19.61 22.62 19.6 22.63 19.6 22.62 19.6 22.63 19.6 22.69 19.54 22.75 19.48 22.81 19.43 22.81 19.42 22.81 19.43 22.81 19.42 22.82 19.41 22.84 19.4 22.85 19.38 22.85 19.38 22.85 19.38 22.86 19.38 25.18 17.21 27.65 15.19 30.25 13.33 30.25 13.33 30.25 13.33 30.25 13.33 30.27 13.32 30.28 13.31 30.3 13.3 30.3 13.3 30.3 13.3 30.3 13.3 30.32 13.28 30.34 13.27 30.35 13.26 30.35 13.26 30.35 13.26 30.35 13.26 30.4 13.22 30.45 13.19 30.5 13.15 30.51 13.15 30.51 13.15 30.51 13.15 30.53 13.14 30.54 13.13 30.55 13.12 30.56 13.12 30.56 13.11 30.56 13.11 30.58 13.1 30.59 13.09 30.6 13.09 30.6 13.08 30.61 13.08 30.61 13.08 30.63 13.07 30.64 13.06 30.65 13.05 30.66 13.05 30.66 13.04 30.66 13.04 30.68 13.03 30.69 13.02 30.7 13.01 30.71 13.01 30.71 13.01 30.71 13.01 30.75 12.98 30.78 12.96 30.81 12.94 30.81 12.94 30.82 12.93 30.82 12.93 30.83 12.92 30.85 12.91 30.86 12.9 30.86 12.9 30.87 12.9 30.87 12.89 30.88 12.89 30.9 12.88 30.91 12.87 30.91 12.87 30.92 12.86 30.92 12.86 30.94 12.85 30.95 12.84 30.96 12.83 30.96 12.83 30.97 12.83 30.97 12.82 30.99 12.82 31 12.81 31.01 12.8 31.01 12.8 31.02 12.79 31.02 12.79 31.04 12.78 31.05 12.77 31.07 12.76 31.07 12.76 31.07 12.76 31.07 12.76 31.09 12.75 31.1 12.73 31.12 12.72 31.12 12.72 31.13 12.72 31.13 12.71 31.14 12.71 31.16 12.7 31.17 12.69 31.17 12.69 31.18 12.68 31.19 12.68 31.2 12.67 31.21 12.66 31.22 12.66 31.22 12.65 31.23 12.65 31.24 12.64 31.25 12.64 31.26 12.63 31.26 12.62 31.27 12.62 31.28 12.61 31.29 12.61 31.29 12.6 31.3 12.6 31.31 12.59 31.32 12.59 31.33 12.58 31.34 12.57 31.34 12.57 31.35 12.56 31.36 12.56 31.37 12.55 31.38 12.55 31.38 12.54 31.39 12.54 31.4 12.53 31.41 12.52 31.42 12.51 31.44 12.5 31.45 12.49 31.46 12.49 31.47 12.48 31.48 12.48 31.49 12.47 31.49 12.47 31.5 12.46 31.51 12.46 31.52 12.45 31.53 12.44 31.53 12.44 31.54 12.43 31.55 12.43 31.56 12.42 31.57 12.42 31.57 12.41 31.58 12.41 31.59 12.4 31.6 12.39 31.61 12.39 31.61 12.38 31.62 12.38 31.63 12.37 31.64 12.37 31.65 12.36 31.66 12.36 31.66 12.35 31.67 12.35 31.68 12.34 31.69 12.33 31.7 12.33 31.7 12.32 31.71 12.32 31.72 12.31 31.74 12.3 31.75 12.29 31.77 12.28 31.78 12.27 31.78 12.27 31.79 12.27 31.8 12.26 31.81 12.25 31.82 12.25 31.82 12.24 31.83 12.24 31.84 12.23 31.85 12.23 31.86 12.22 31.87 12.21 31.87 12.21 31.88 12.21 31.88 12.2 31.9 12.19 31.9 12.19 31.92 12.18 31.92 12.18 31.93 12.17 31.93 12.17 31.94 12.16 31.95 12.16 31.96 12.15 31.97 12.15 31.97 12.14 31.98 12.14 31.99 12.13 32 12.12 32.01 12.12 32.01 12.11 32.02 12.11 32.02 12.11 32.07 12.08 32.11 12.05 32.16 12.02 32.16 12.02 34.37 15.35 34.37 15.35 30.19 18.14 26.3 21.4 22.82 25.04 22.82 25.04 22.82 25.04 22.82 25.04ZM 44.29 9.88C 44.29 9.88 42.65 6.23 42.65 6.23 44.06 5.6 45.49 5.02 46.93 4.48 46.93 4.48 46.93 4.48 46.93 4.48 47.07 4.43 47.21 4.38 47.35 4.33 47.35 4.33 47.35 4.33 47.35 4.33 47.36 4.32 47.38 4.32 47.4 4.31 47.4 4.31 47.4 4.31 47.4 4.31 47.42 4.31 47.43 4.3 47.45 4.29 47.45 4.29 47.45 4.29 47.45 4.29 50.82 3.07 54.29 2.1 57.87 1.39 57.87 1.39 58.65 5.31 58.65 5.31 53.71 6.29 48.88 7.83 44.29 9.88 44.29 9.88 44.29 9.88 44.29 9.88ZM 84.94 5.23C 80.71 4.41 76.35 4 72 4 71.3 4 70.6 4.01 69.9 4.03 69.9 4.03 69.78 0.03 69.78 0.03 70.33 0.02 70.88 0.01 71.44 0 71.44 0 71.45 0 71.45 0 71.47 0 71.49 0 71.51 0 71.51 0 71.51 0 71.52 0 71.54 0 71.56 0 71.58 0 71.58 0 71.58 0 71.58 0 71.63 0 71.67 0 71.72 0 71.72 0 71.73 0 71.73 0 71.75 0 71.77 0 71.78 0 71.79 0 71.8 0 71.8 0 71.82 0 71.83 0 71.85 0 71.85 0 71.86 0 71.87 0 71.89 0 71.9-0 71.91-0 71.92-0 71.93-0 71.94-0 71.96-0 71.98-0 72-0 72-0 72-0 72-0 72.02-0 72.04-0 72.06-0 72.06-0 72.07-0 72.07-0 72.09-0 72.1-0 72.11 0 72.12 0 72.13 0 72.14 0 72.15 0 72.16 0 72.17 0 72.18 0 72.18 0 72.19 0 72.2 0 72.21 0 72.23 0 72.24 0 72.24 0 72.25 0 72.26 0 72.27 0 72.28 0 72.29 0 72.3 0 72.31 0 72.32 0 72.33 0 72.34 0 72.35 0 72.36 0 72.37 0 72.38 0 72.39 0 72.4 0 72.4 0 72.41 0 72.42 0 72.43 0 72.44 0 72.45 0 72.46 0 72.47 0 72.48 0 72.49 0 72.5 0 72.51 0 72.52 0 72.53 0 72.53 0 72.55 0 72.56 0 72.57 0 72.58 0 72.58 0 72.59 0 72.6 0 72.61 0 72.62 0 72.63 0 72.64 0 72.65 0 72.66 0 72.67 0 72.68 0 72.69 0 72.7 0 72.7 0 72.72 0 72.73 0 72.74 0 72.75 0 72.75 0 72.76 0 72.77 0 72.79 0 72.8 0 72.81 0 72.81 0 72.82 0 72.83 0 72.85 0 72.86 0 72.87 0.01 72.87 0.01 72.87 0.01 72.89 0.01 72.91 0.01 72.92 0.01 72.93 0.01 72.93 0.01 72.93 0.01 72.95 0.01 72.97 0.01 72.99 0.01 72.99 0.01 72.99 0.01 72.99 0.01 73.01 0.01 73.03 0.01 73.04 0.01 73.05 0.01 73.05 0.01 73.06 0.01 73.07 0.01 73.09 0.01 73.1 0.01 73.11 0.01 73.11 0.01 73.12 0.01 73.13 0.01 73.15 0.01 73.16 0.01 73.16 0.01 73.17 0.01 73.18 0.01 73.19 0.01 73.2 0.01 73.22 0.01 73.22 0.01 73.23 0.01 73.23 0.01 73.25 0.01 73.26 0.01 73.27 0.01 73.28 0.01 73.28 0.01 73.29 0.01 73.3 0.01 73.32 0.01 73.33 0.01 73.34 0.01 73.34 0.01 73.35 0.01 73.36 0.01 73.37 0.01 73.39 0.01 73.39 0.01 73.4 0.01 73.41 0.01 73.42 0.01 73.43 0.01 73.44 0.01 73.45 0.01 73.45 0.01 73.46 0.01 73.47 0.01 73.49 0.01 73.5 0.02 73.51 0.02 73.51 0.02 73.52 0.02 73.53 0.02 73.55 0.02 73.56 0.02 73.56 0.02 73.57 0.02 73.57 0.02 73.59 0.02 73.6 0.02 73.62 0.02 73.62 0.02 73.63 0.02 73.63 0.02 73.64 0.02 73.66 0.02 73.68 0.02 73.68 0.02 73.68 0.02 73.69 0.02 73.8 0.02 73.92 0.02 74.03 0.03 74.03 0.03 74.03 0.03 74.03 0.03 74.05 0.03 74.07 0.03 74.09 0.03 74.09 0.03 74.09 0.03 74.09 0.03 74.11 0.03 74.13 0.03 74.15 0.03 74.15 0.03 74.15 0.03 74.15 0.03 74.17 0.03 74.19 0.03 74.2 0.03 74.21 0.03 74.21 0.03 74.21 0.03 74.23 0.03 74.24 0.03 74.26 0.03 74.26 0.03 74.27 0.03 74.27 0.03 74.28 0.04 74.3 0.04 74.32 0.04 74.32 0.04 74.32 0.04 74.33 0.04 74.34 0.04 74.36 0.04 74.38 0.04 74.38 0.04 74.38 0.04 74.38 0.04 74.4 0.04 74.41 0.04 74.43 0.04 74.44 0.04 74.44 0.04 74.44 0.04 74.46 0.04 74.47 0.04 74.49 0.04 74.49 0.04 74.49 0.04 74.5 0.04 74.51 0.04 74.53 0.04 74.55 0.04 74.55 0.04 74.55 0.04 74.55 0.04 74.78 0.05 75.01 0.06 75.24 0.07 75.24 0.07 75.24 0.07 75.24 0.07 78.32 0.21 81.34 0.54 84.3 1.05 84.3 1.05 84.3 1.05 84.31 1.05 84.32 1.05 84.34 1.05 84.36 1.06 84.36 1.06 84.36 1.06 84.36 1.06 84.37 1.06 84.4 1.06 84.41 1.07 84.41 1.07 84.42 1.07 84.42 1.07 84.43 1.07 84.45 1.07 84.46 1.07 84.47 1.08 84.47 1.08 84.48 1.08 84.49 1.08 84.5 1.08 84.51 1.08 84.52 1.08 84.53 1.09 84.53 1.09 84.54 1.09 84.56 1.09 84.57 1.09 84.57 1.09 84.58 1.1 84.59 1.1 84.6 1.1 84.61 1.1 84.62 1.1 84.63 1.1 84.64 1.11 84.64 1.11 84.66 1.11 84.66 1.11 84.67 1.11 84.68 1.11 84.69 1.11 84.7 1.12 84.71 1.12 84.71 1.12 84.72 1.12 84.73 1.12 84.74 1.12 84.76 1.13 84.76 1.13 84.77 1.13 84.77 1.13 84.79 1.13 84.8 1.13 84.81 1.14 84.82 1.14 84.82 1.14 84.83 1.14 84.84 1.14 84.85 1.14 84.86 1.15 84.87 1.15 84.87 1.15 84.88 1.15 85.15 1.2 85.42 1.25 85.7 1.3 85.7 1.3 84.94 5.23 84.94 5.23 84.94 5.23 84.94 5.23 84.94 5.23ZM 109.28 15.12C 105.06 12.35 100.54 10.05 95.83 8.29 95.83 8.29 97.24 4.55 97.24 4.55 99.01 5.21 100.74 5.94 102.45 6.74 102.45 6.74 102.45 6.74 102.45 6.74 102.46 6.74 102.48 6.75 102.5 6.76 102.5 6.76 102.5 6.76 102.5 6.76 102.52 6.77 102.54 6.78 102.56 6.79 102.56 6.79 102.56 6.79 102.56 6.79 102.62 6.82 102.67 6.84 102.73 6.87 102.73 6.87 102.73 6.87 102.73 6.87 102.75 6.88 102.77 6.89 102.78 6.89 102.79 6.89 102.79 6.9 102.8 6.9 102.81 6.91 102.82 6.91 102.84 6.92 102.84 6.92 102.85 6.92 102.85 6.93 102.86 6.93 102.88 6.94 102.89 6.94 102.9 6.95 102.9 6.95 102.91 6.95 102.92 6.96 102.93 6.96 102.95 6.97 102.95 6.97 102.95 6.97 102.96 6.98 102.97 6.98 102.99 6.99 103.01 7 103.01 7 103.01 7 103.01 7 103.05 7.02 103.09 7.04 103.12 7.06 103.13 7.06 103.13 7.06 103.14 7.06 103.15 7.07 103.16 7.07 103.18 7.08 103.18 7.08 103.19 7.09 103.19 7.09 103.2 7.09 103.22 7.1 103.23 7.11 103.24 7.11 103.24 7.11 103.25 7.12 103.26 7.12 103.27 7.13 103.28 7.13 103.29 7.14 103.3 7.14 103.3 7.14 103.31 7.15 103.32 7.15 103.34 7.16 103.34 7.16 103.35 7.17 103.36 7.17 103.37 7.17 103.38 7.18 103.39 7.19 103.4 7.19 103.4 7.19 103.41 7.19 103.42 7.2 103.43 7.21 103.44 7.21 103.46 7.22 103.47 7.23 103.49 7.23 103.5 7.24 103.51 7.24 103.51 7.24 103.52 7.25 103.53 7.25 103.54 7.26 103.55 7.26 103.56 7.27 103.56 7.27 103.57 7.27 103.58 7.28 103.59 7.28 103.6 7.29 103.61 7.29 103.62 7.3 103.63 7.3 103.64 7.31 103.65 7.31 103.65 7.31 103.66 7.32 103.67 7.32 103.68 7.32 103.69 7.33 103.7 7.34 103.71 7.34 103.71 7.34 103.71 7.34 103.73 7.35 103.74 7.36 103.75 7.36 103.76 7.36 103.76 7.36 103.76 7.37 103.82 7.4 103.88 7.43 103.94 7.46 103.95 7.46 103.95 7.46 103.95 7.46 103.96 7.47 103.98 7.47 103.99 7.48 104 7.48 104 7.48 104.01 7.49 104.02 7.49 104.03 7.5 104.04 7.51 104.05 7.51 104.05 7.51 104.05 7.51 104.07 7.52 104.08 7.52 104.1 7.53 104.1 7.53 104.1 7.53 104.1 7.53 104.2 7.58 104.29 7.63 104.39 7.68 104.39 7.68 104.39 7.68 104.39 7.68 106.83 8.91 109.2 10.28 111.47 11.77 111.47 11.77 109.28 15.12 109.28 15.12 109.28 15.12 109.28 15.12 109.28 15.12ZM 128.06 33.51C 125.21 29.36 121.89 25.52 118.19 22.1 118.19 22.1 120.91 19.16 120.91 19.16 124.82 22.78 128.33 26.83 131.36 31.24 131.36 31.24 128.06 33.51 128.06 33.51 128.06 33.51 128.06 33.51 128.06 33.51ZM 138.48 57.62C 137.42 52.7 135.81 47.9 133.68 43.33 133.68 43.33 137.31 41.64 137.31 41.64 139.53 46.43 141.25 51.5 142.39 56.78 142.39 56.78 138.48 57.62 138.48 57.62 138.48 57.62 138.48 57.62 138.48 57.62ZM 142.9 84.6C 142.9 84.6 138.96 83.91 138.96 83.91 139.65 80.01 140 76 140 72 140 70.95 139.98 69.89 139.93 68.85 139.93 68.85 143.92 68.67 143.92 68.67 143.96 69.35 143.98 70.03 143.99 70.72 143.99 70.72 143.99 70.72 143.99 70.72 143.99 70.74 143.99 70.76 143.99 70.78 143.99 70.78 143.99 70.78 143.99 70.78 143.99 70.8 143.99 70.82 143.99 70.84 143.99 70.84 143.99 70.84 143.99 70.84 143.99 70.92 143.99 70.99 143.99 71.07 143.99 71.07 143.99 71.07 143.99 71.08 143.99 71.09 143.99 71.11 143.99 71.12 143.99 71.13 143.99 71.13 143.99 71.14 144 71.15 144 71.16 144 71.18 144 71.18 144 71.19 144 71.19 144 71.21 144 71.22 144 71.24 144 71.24 144 71.25 144 71.25 144 71.27 144 71.28 144 71.29 144 71.3 144 71.3 144 71.31 144 71.32 144 71.34 144 71.35 144 71.35 144 71.36 144 71.36 144 71.38 144 71.39 144 71.41 144 71.41 144 71.42 144 71.42 144 71.46 144 71.49 144 71.53 144 71.54 144 71.54 144 71.55 144 71.56 144 71.58 144 71.59 144 71.59 144 71.6 144 71.61 144 71.62 144 71.63 144 71.64 144 71.65 144 71.66 144 71.67 144 71.68 144 71.69 144 71.7 144 71.71 144 71.71 144 71.72 144 71.73 144 71.74 144 71.75 144 71.76 144 71.77 144 71.78 144 71.79 144 71.8 144 71.81 144 71.82 144 71.83 144 71.83 144 71.84 144 71.86 144 71.87 144 71.88 144 71.88 144 71.89 144 71.9 144 71.92 144 71.93 144 71.93 144 71.94 144 71.94 144 71.96 144 71.98 144 72 144 72 144 72 144 72 144 72.02 144 72.04 144 72.05 144 72.06 144 72.07 144 72.07 144 72.09 144 72.1 144 72.11 144 72.12 144 72.12 144 72.13 144 72.14 144 72.15 144 72.16 144 72.17 144 72.18 144 72.19 144 72.2 144 72.21 144 72.22 144 72.23 144 72.23 144 72.24 144 72.25 144 72.27 144 72.28 144 72.28 144 72.29 144 72.3 144 72.31 144 72.33 144 72.34 144 72.35 144 72.35 144 72.35 144 72.37 144 72.39 144 72.41 144 72.41 144 72.41 144 72.41 144 72.43 144 72.45 144 72.46 144 72.47 144 72.47 144 72.48 144 72.49 144 72.5 144 72.52 144 72.52 144 72.53 144 72.53 144 72.55 144 72.56 144 72.57 144 72.58 144 72.58 144 72.59 144 72.6 144 72.62 144 72.63 144 72.63 144 72.64 144 72.65 144 72.66 144 72.67 144 72.69 144 72.69 144 72.7 144 72.7 144 72.74 144 72.77 144 72.81 144 72.82 144 72.82 144 72.83 144 72.84 144 72.85 143.99 72.87 143.99 72.87 143.99 72.88 143.99 72.88 143.99 72.9 143.99 72.91 143.99 72.92 143.99 72.93 143.99 72.93 143.99 72.94 143.99 72.95 143.99 72.97 143.99 72.98 143.99 72.98 143.99 72.99 143.99 73 143.99 73.01 143.99 73.02 143.99 73.04 143.99 73.04 143.99 73.05 143.99 73.05 143.99 73.09 143.99 73.12 143.99 73.16 143.99 73.16 143.99 73.17 143.99 73.17 143.99 73.19 143.99 73.2 143.99 73.22 143.99 73.22 143.99 73.22 143.99 73.23 143.99 73.24 143.99 73.26 143.99 73.27 143.99 73.28 143.99 73.28 143.99 73.29 143.99 73.3 143.99 73.32 143.99 73.33 143.99 73.33 143.99 73.34 143.99 73.34 143.99 73.36 143.99 73.37 143.99 73.39 143.99 73.39 143.99 73.39 143.99 73.4 143.99 73.42 143.99 73.43 143.99 73.45 143.99 73.45 143.99 73.45 143.99 73.45 143.98 73.49 143.98 73.53 143.98 73.57 143.98 73.57 143.98 73.57 143.98 73.57 143.98 73.59 143.98 73.6 143.98 73.62 143.98 73.63 143.98 73.63 143.98 73.63 143.98 73.65 143.98 73.66 143.98 73.68 143.98 73.68 143.98 73.69 143.98 73.69 143.98 73.7 143.98 73.72 143.98 73.74 143.98 73.74 143.98 73.74 143.98 73.75 143.98 73.77 143.98 73.78 143.98 73.8 143.98 73.8 143.98 73.8 143.98 73.8 143.98 73.86 143.98 73.91 143.97 73.97 143.97 73.97 143.97 73.98 143.97 73.98 143.97 73.99 143.97 74.01 143.97 74.03 143.97 74.03 143.97 74.03 143.97 74.04 143.97 74.05 143.97 74.07 143.97 74.08 143.97 74.09 143.97 74.09 143.97 74.09 143.97 74.11 143.97 74.13 143.97 74.14 143.97 74.15 143.97 74.15 143.97 74.15 143.97 74.21 143.97 74.26 143.96 74.32 143.96 74.32 143.96 74.32 143.96 74.32 143.96 74.34 143.96 74.36 143.96 74.38 143.96 74.38 143.96 74.38 143.96 74.38 143.96 74.4 143.96 74.42 143.96 74.44 143.96 74.44 143.96 74.44 143.96 74.44 143.96 74.55 143.95 74.67 143.95 74.78 143.95 74.78 143.95 74.78 143.95 74.78 143.82 78.12 143.47 81.4 142.9 84.6 142.9 84.6 142.9 84.6 142.9 84.6ZM 132.83 110.54C 132.83 110.54 129.45 108.4 129.45 108.4 132.15 104.14 134.38 99.58 136.07 94.85 136.07 94.85 139.83 96.19 139.83 96.19 138.03 101.26 135.67 106.07 132.83 110.54 132.83 110.54 132.83 110.54 132.83 110.54ZM 113.67 130.72C 113.67 130.72 111.35 127.46 111.35 127.46 115.46 124.55 119.24 121.17 122.61 117.42 122.61 117.42 125.59 120.09 125.59 120.09 124.14 121.7 122.62 123.25 121.04 124.72 121.03 124.72 121.03 124.72 121.03 124.73 121.02 124.74 121 124.75 120.99 124.76 120.99 124.76 120.99 124.77 120.99 124.77 120.97 124.78 120.96 124.79 120.95 124.8 120.94 124.81 120.94 124.81 120.94 124.81 120.93 124.82 120.91 124.84 120.9 124.85 120.9 124.85 120.9 124.85 120.9 124.85 120.85 124.89 120.81 124.93 120.76 124.97 120.76 124.98 120.75 124.98 120.75 124.98 120.74 124.99 120.73 125.01 120.72 125.02 120.71 125.02 120.71 125.02 120.71 125.03 120.7 125.04 120.69 125.04 120.68 125.05 120.67 125.06 120.67 125.06 120.66 125.07 120.65 125.08 120.64 125.09 120.63 125.1 120.62 125.1 120.62 125.1 120.62 125.11 120.6 125.12 120.59 125.13 120.58 125.14 120.58 125.14 120.57 125.15 120.57 125.15 120.56 125.16 120.54 125.17 120.53 125.19 120.53 125.19 120.53 125.19 120.53 125.19 120.51 125.2 120.5 125.21 120.49 125.23 120.48 125.23 120.48 125.24 120.47 125.24 120.46 125.25 120.45 125.26 120.44 125.27 120.44 125.27 120.43 125.28 120.43 125.28 120.42 125.29 120.41 125.3 120.4 125.31 120.39 125.31 120.39 125.32 120.38 125.32 120.37 125.33 120.36 125.34 120.36 125.35 120.35 125.35 120.34 125.36 120.34 125.36 120.33 125.37 120.32 125.38 120.31 125.38 120.31 125.39 120.3 125.4 120.29 125.4 120.28 125.41 120.28 125.42 120.27 125.42 120.26 125.44 120.24 125.45 120.23 125.46 120.22 125.47 120.22 125.47 120.21 125.48 120.2 125.49 120.19 125.49 120.18 125.5 120.18 125.51 120.17 125.51 120.17 125.52 120.16 125.52 120.15 125.53 120.14 125.54 120.14 125.54 120.13 125.55 120.12 125.55 120.12 125.56 120.11 125.57 120.1 125.58 120.09 125.58 120.09 125.59 120.08 125.59 120.07 125.6 120.06 125.61 120.05 125.62 120.05 125.62 120.05 125.63 120.04 125.63 120.03 125.64 120.02 125.65 120.01 125.66 120.01 125.66 120.01 125.66 120.01 125.66 119.96 125.71 119.9 125.75 119.85 125.8 119.85 125.8 119.85 125.8 119.85 125.8 119.84 125.81 119.82 125.82 119.81 125.83 119.81 125.84 119.81 125.84 119.81 125.84 119.79 125.85 119.78 125.86 119.77 125.87 119.77 125.87 119.77 125.87 119.76 125.88 117.82 127.6 115.79 129.22 113.67 130.72 113.67 130.72 113.67 130.72 113.67 130.72ZM 88.3 142.15C 88.3 142.15 87.4 138.25 87.4 138.25 92.3 137.12 97.08 135.43 101.61 133.23 101.61 133.23 103.36 136.83 103.36 136.83 98.61 139.13 93.57 140.93 88.3 142.15 88.3 142.15 88.3 142.15 88.3 142.15ZM 72 144C 72 144 72 140 72 140 73.4 140 74.81 139.96 76.2 139.87 76.2 139.87 76.44 143.87 76.44 143.87 76.43 143.87 76.42 143.87 76.41 143.87 76.4 143.87 76.4 143.87 76.39 143.87 76.37 143.87 76.36 143.87 76.34 143.87 76.34 143.87 76.34 143.87 76.33 143.87 76.31 143.87 76.3 143.87 76.28 143.87 76.28 143.87 76.28 143.87 76.28 143.88 75.26 143.93 74.24 143.97 73.22 143.99 73.22 143.99 73.22 143.99 73.22 143.99 73.2 143.99 73.18 143.99 73.16 143.99 73.16 143.99 73.16 143.99 73.16 143.99 73.09 143.99 73.01 143.99 72.94 143.99 72.94 143.99 72.93 143.99 72.93 143.99 72.91 143.99 72.9 143.99 72.88 143.99 72.88 143.99 72.87 143.99 72.86 143.99 72.85 144 72.84 144 72.82 144 72.81 144 72.81 144 72.8 144 72.79 144 72.77 144 72.76 144 72.75 144 72.75 144 72.75 144 72.72 144 72.69 144 72.66 144 72.65 144 72.65 144 72.64 144 72.63 144 72.61 144 72.6 144 72.59 144 72.58 144 72.57 144 72.56 144 72.55 144 72.54 144 72.53 144 72.52 144 72.51 144 72.5 144 72.49 144 72.48 144 72.46 144 72.45 144 72.44 144 72.43 144 72.42 144 72.41 144 72.39 144 72.37 144 72.35 144 72.35 144 72.35 144 72.35 144 72.33 144 72.31 144 72.29 144 72.28 144 72.27 144 72.26 144 72.25 144 72.23 144 72.22 144 72.21 144 72.2 144 72.2 144 72.18 144 72.17 144 72.15 144 72.15 144 72.14 144 72.13 144 72.11 144 72.1 144 72.08 144 72.08 144 72.07 144 72.07 144 72.04 144 72.02 144 72 144 72 144 72 144 72 144 72 144 72 144 72 144Z" fill="rgb(0,193,95)"/><path fillRule="evenodd" d="M 58.88 84.51C 58.88 84.51 41.81 70.51 41.81 70.51 41.81 70.51 36 75.25 36 75.25 36 75.25 58.88 94 58.88 94 58.88 94 107.99 53.74 107.99 53.74 107.99 53.74 102.22 49 102.22 49 102.22 49 58.88 84.51 58.88 84.51Z" fill="rgb(0,193,95)"/></g></svg>